# xmcd
#
# Track frame offsets:
#	150
#	13794
#	34203
#	56826
#	73705
#	89206
#	106748
#	134382
#	137124
#	153232
#	164705
#	188351
#	208845
#	222983
#
# Disc length: 3237 seconds
#
# Revision: 1
# Processed by: cddbd v1.5.1PL2 Copyright (c) Steve Scherf et al.
# Submitted via: audiograbber 1.83.01
#
DISCID=d30ca30e
DTITLE=Hansa - Mannsöngvar
DYEAR=2005
DGENRE=Vocal
TTITLE0=Les Moulins de Mon Coeur
TTITLE1=Til eru fræ
TTITLE2=Tom Taubert's Blues (Waltzing Mathilda)
TTITLE3=Perlukafararnir - Dúett með Röggu Gísla
TTITLE4=Le Mer
TTITLE5=Tvær Stjörnur
TTITLE6=Famous Blue Raincoat
TTITLE7=Enrico
TTITLE8=Caruso
TTITLE9=Álagaþula
TTITLE10=When I Am Laid In Earth
TTITLE11=Invitation to The Blues
TTITLE12=Mýs og menn
TTITLE13=River Man
EXTD=
EXTT0=
EXTT1=
EXTT2=
EXTT3=
EXTT4=
EXTT5=
EXTT6=
EXTT7=
EXTT8=
EXTT9=
EXTT10=
EXTT11=
EXTT12=
EXTT13=
PLAYORDER=
